{
  "accessors": [
    {
      "bufferView": 2,
      "componentType": 5126,
      "count": 3710,
      "max": [
        70,
        16.498355865478516,
        88
      ],
      "min": [
        -70,
        -23.501646041870117,
        0
      ],
      "type": "VEC3"
    },
    {
      "bufferView": 2,
      "byteOffset": 44520,
      "componentType": 5126,
      "count": 3710,
      "max": [
        1,
        1,
        1
      ],
      "min": [
        -1,
        -1,
        -1
      ],
      "type": "VEC3"
    },
    {
      "bufferView": 3,
      "componentType": 5126,
      "count": 3710,
      "max": [
        1,
        1,
        1,
        1
      ],
      "min": [
        -1,
        -1,
        -1,
        -1
      ],
      "type": "VEC4"
    },
    {
      "bufferView": 1,
      "componentType": 5126,
      "count": 3710,
      "max": [
        0.99801802635192871,
        0.99292701482772827
      ],
      "min": [
        0.0019819999579340219,
        0.0019809999503195286
      ],
      "type": "VEC2"
    },
    {
      "bufferView": 0,
      "componentType": 5125,
      "count": 7350,
      "max": [
        3709
      ],
      "min": [
        0
      ],
      "type": "SCALAR"
    },
    {
      "bufferView": 2,
      "byteOffset": 89040,
      "componentType": 5126,
      "count": 6363,
      "max": [
        36.236831665039062,
        -17.479526519775391,
        74.502220153808594
      ],
      "min": [
        -36.224723815917969,
        -19.373767852783203,
        71.25
      ],
      "type": "VEC3"
    },
    {
      "bufferView": 2,
      "byteOffset": 165396,
      "componentType": 5126,
      "count": 6363,
      "max": [
        1,
        1,
        1
      ],
      "min": [
        -1,
        -1,
        -1
      ],
      "type": "VEC3"
    },
    {
      "bufferView": 3,
      "byteOffset": 59360,
      "componentType": 5126,
      "count": 6363,
      "max": [
        0.99991118907928467,
        1,
        1,
        1
      ],
      "min": [
        -1,
        -1,
        -0.99956482648849487,
        -1
      ],
      "type": "VEC4"
    },
    {
      "bufferView": 1,
      "byteOffset": 29680,
      "componentType": 5126,
      "count": 6363,
      "max": [
        0.98000001907348633,
        0.99578201770782471
      ],
      "min": [
        0.0016700000269338489,
        0.0016710000345483422
      ],
      "type": "VEC2"
    },
    {
      "bufferView": 0,
      "byteOffset": 29400,
      "componentType": 5125,
      "count": 15768,
      "max": [
        6362
      ],
      "min": [
        0
      ],
      "type": "SCALAR"
    },
    {
      "bufferView": 2,
      "byteOffset": 241752,
      "componentType": 5126,
      "count": 5220,
      "max": [
        36.188899993896484,
        -17.70164680480957,
        76.048835754394531
      ],
      "min": [
        -36.176792144775391,
        -19.126424789428711,
        74.355087280273438
      ],
      "type": "VEC3"
    },
    {
      "bufferView": 2,
      "byteOffset": 304392,
      "componentType": 5126,
      "count": 5220,
      "max": [
        1,
        1,
        1
      ],
      "min": [
        -1,
        -1,
        -1
      ],
      "type": "VEC3"
    },
    {
      "bufferView": 3,
      "byteOffset": 161168,
      "componentType": 5126,
      "count": 5220,
      "max": [
        1,
        0.99997895956039429,
        1,
        1
      ],
      "min": [
        -1,
        -1,
        -1,
        -1
      ],
      "type": "VEC4"
    },
    {
      "bufferView": 1,
      "byteOffset": 80584,
      "componentType": 5126,
      "count": 5220,
      "max": [
        0.99829500913619995,
        0.99429202079772949
      ],
      "min": [
        0.0016710000345483422,
        0.0016680000117048621
      ],
      "type": "VEC2"
    },
    {
      "bufferView": 0,
      "byteOffset": 92472,
      "componentType": 5125,
      "count": 23877,
      "max": [
        5219
      ],
      "min": [
        0
      ],
      "type": "SCALAR"
    }
  ],
  "asset": {
    "extras": {
      "author": "Interiors3D (https://sketchfab.com/Interiors3D)",
      "license": "CC-BY-4.0 (http://creativecommons.org/licenses/by/4.0/)",
      "source": "https://sketchfab.com/3d-models/a39800-4d14ad08675b49aab5f7636b56770bca",
      "title": "A39800"
    },
    "generator": "Sketchfab-8.48.0",
    "version": "2.0"
  },
  "bufferViews": [
    {
      "buffer": 0,
      "byteLength": 187980,
      "byteOffset": 0,
      "name": "floatBufferViews",
      "target": 34963
    },
    {
      "buffer": 0,
      "byteLength": 122344,
      "byteOffset": 187980,
      "byteStride": 8,
      "name": "floatBufferViews",
      "target": 34962
    },
    {
      "buffer": 0,
      "byteLength": 367032,
      "byteOffset": 310324,
      "byteStride": 12,
      "name": "floatBufferViews",
      "target": 34962
    },
    {
      "buffer": 0,
      "byteLength": 244688,
      "byteOffset": 677356,
      "byteStride": 16,
      "name": "floatBufferViews",
      "target": 34962
    }
  ],
  "buffers": [
    {
      "byteLength": 922044,
      "uri": "scene.bin"
    }
  ],
  "images": [
    {
      "uri": "textures/Bruges.black_baseColor.jpeg"
    },
    {
      "uri": "textures/Bruges.black_metallicRoughness.png"
    },
    {
      "uri": "textures/Bruges.black_normal.png"
    },
    {
      "uri": "textures/Metal.black_baseColor.jpeg"
    },
    {
      "uri": "textures/Metal.black_metallicRoughness.png"
    },
    {
      "uri": "textures/Metal.black_normal.png"
    }
  ],
  "materials": [
    {
      "doubleSided": true,
      "name": "Bruges.black",
      "normalTexture": {
        "index": 2,
        "scale": 0.59999999999999998,
        "texCoord": 0
      },
      "pbrMetallicRoughness": {
        "baseColorFactor": [
          1,
          1,
          1,
          1
        ],
        "baseColorTexture": {
          "index": 0,
          "texCoord": 0
        },
        "metallicFactor": 0,
        "metallicRoughnessTexture": {
          "index": 1,
          "texCoord": 0
        },
        "roughnessFactor": 1
      }
    },
    {
      "doubleSided": true,
      "name": "Metal.black",
      "normalTexture": {
        "index": 5,
        "scale": 1,
        "texCoord": 0
      },
      "pbrMetallicRoughness": {
        "baseColorFactor": [
          0.80000000000000004,
          0.80000000000000004,
          0.80000000000000004,
          1
        ],
        "baseColorTexture": {
          "index": 3,
          "texCoord": 0
        },
        "metallicFactor": 1,
        "metallicRoughnessTexture": {
          "index": 4,
          "texCoord": 0
        },
        "roughnessFactor": 1
      }
    }
  ],
  "meshes": [
    {
      "primitives": [
        {
          "attributes": {
            "NORMAL": 1,
            "POSITION": 0,
            "TANGENT": 2,
            "TEXCOORD_0": 3
          },
          "indices": 4,
          "material": 0,
          "mode": 4
        }
      ]
    },
    {
      "primitives": [
        {
          "attributes": {
            "NORMAL": 6,
            "POSITION": 5,
            "TANGENT": 7,
            "TEXCOORD_0": 8
          },
          "indices": 9,
          "material": 1,
          "mode": 4
        }
      ]
    },
    {
      "primitives": [
        {
          "attributes": {
            "NORMAL": 11,
            "POSITION": 10,
            "TANGENT": 12,
            "TEXCOORD_0": 13
          },
          "indices": 14,
          "material": 1,
          "mode": 4
        }
      ]
    }
  ],
  "nodes": [
    {
      "children": [
        1
      ],
      "name": "RootNode (gltf orientation matrix)",
      "rotation": [
        -0.70710678118654746,
        -0,
        -0,
        0.70710678118654757
      ]
    },
    {
      "children": [
        2
      ],
      "name": "RootNode (model correction matrix)"
    },
    {
      "children": [
        3,
        4,
        5
      ],
      "name": "W11 - A39800 - Sketchfab - mesh - black.obj.cleaner.materialmerger.gles"
    },
    {
      "mesh": 0,
      "name": ""
    },
    {
      "mesh": 1,
      "name": ""
    },
    {
      "mesh": 2,
      "name": ""
    }
  ],
  "samplers": [
    {
      "magFilter": 9729,
      "minFilter": 9987,
      "wrapS": 10497,
      "wrapT": 10497
    }
  ],
  "scene": 0,
  "scenes": [
    {
      "name": "OSG_Scene",
      "nodes": [
        0
      ]
    }
  ],
  "textures": [
    {
      "sampler": 0,
      "source": 0
    },
    {
      "sampler": 0,
      "source": 1
    },
    {
      "sampler": 0,
      "source": 2
    },
    {
      "sampler": 0,
      "source": 3
    },
    {
      "sampler": 0,
      "source": 4
    },
    {
      "sampler": 0,
      "source": 5
    }
  ]
}

